<?xml version="1.0" standalone="no"?>
<!DOCTYPE svg PUBLIC "-//W3C//DTD SVG 20010904//EN"
 "http://www.w3.org/TR/2001/REC-SVG-20010904/DTD/svg10.dtd">
<svg version="1.0" xmlns="http://www.w3.org/2000/svg"
 width="1024.000000pt" height="1024.000000pt" viewBox="0 0 1024.000000 1024.000000"
 preserveAspectRatio="xMidYMid meet">
<metadata>
Created by potrace 1.16, written by Peter Selinger 2001-2019
</metadata>
<g transform="translate(0.000000,1024.000000) scale(0.100000,-0.100000)"
fill="#000000" opacity="0.8"  stroke="none">
<path fill="white" d="M0 5120 l0 -5120 4720 0 4720 0 0 80 0 80 320 0 320 0 0 -80 0 -80
80 0 80 0 0 5120 0 5120 -5120 0 -5120 0 0 -5120z m4480 3205 c80 -14 224 -44
320 -67 289 -66 542 -127 595 -142 459 -131 559 -164 900 -292 133 -49 397
-171 520 -238 50 -27 108 -59 130 -70 22 -11 69 -40 104 -63 35 -24 77 -51 95
-60 30 -15 126 -89 268 -206 38 -31 97 -87 130 -125 33 -37 79 -85 102 -108
54 -53 82 -87 135 -157 24 -32 45 -56 47 -54 6 5 -14 114 -40 212 -14 54 -24
101 -22 102 6 7 180 -147 221 -195 22 -25 67 -76 101 -112 123 -132 344 -448
397 -569 11 -26 27 -57 37 -71 53 -79 188 -451 221 -609 53 -256 74 -580 50
-791 -36 -318 -126 -639 -262 -938 -159 -347 -364 -676 -624 -1004 -124 -155
-325 -371 -501 -539 -74 -70 -356 -297 -409 -329 -22 -13 -62 -41 -90 -61 -27
-20 -79 -54 -115 -74 -36 -20 -78 -45 -95 -55 -162 -101 -459 -241 -725 -341
-114 -43 -127 -48 -182 -72 -20 -9 -75 -27 -122 -41 -46 -13 -93 -33 -105 -45
-30 -30 -69 -48 -193 -88 -300 -95 -438 -131 -738 -187 -459 -87 -845 -85
-1114 5 -131 43 -195 76 -301 154 -231 171 -403 473 -478 840 -11 55 -22 102
-23 104 -2 2 -17 -7 -34 -19 -86 -61 -341 -144 -503 -164 -59 -7 -109 -15
-112 -18 -3 -3 21 -29 55 -58 33 -28 60 -56 60 -61 0 -5 -12 -10 -27 -10 l-28
-1 29 -7 c16 -3 31 -12 34 -20 4 -11 -9 -13 -74 -8 -44 4 -152 11 -241 17
-138 9 -417 47 -475 66 -15 4 -18 -1 -18 -30 0 -19 9 -59 19 -88 36 -100 36
-100 4 -93 -15 4 -37 10 -48 15 -11 5 -42 19 -70 31 -120 52 -271 171 -361
285 -50 62 -114 200 -131 278 -34 157 -11 341 58 477 55 111 139 218 231 296
67 58 306 215 346 227 16 5 17 20 14 140 -6 189 23 368 75 471 9 17 31 61 50
99 40 78 138 227 210 318 72 90 210 249 246 282 18 16 57 52 87 80 30 29 80
70 110 93 30 23 70 54 88 68 40 33 41 17 1 -41 -32 -48 -68 -121 -69 -141 0
-24 28 -13 82 31 70 57 140 101 269 170 123 65 450 198 528 215 88 19 199 68
283 126 44 30 82 55 85 55 5 0 154 110 163 120 3 4 43 32 89 64 47 32 111 79
142 105 32 25 75 58 96 73 48 34 268 197 359 266 158 120 322 241 406 298 49
34 101 72 116 86 15 14 43 36 63 49 56 37 202 139 339 237 69 50 127 88 129
86 2 -2 -25 -35 -60 -72 -35 -38 -84 -93 -109 -123 -25 -30 -85 -98 -135 -153
-49 -54 -108 -119 -130 -145 -53 -62 -316 -353 -376 -416 -81 -86 -193 -207
-229 -248 -19 -22 -64 -72 -100 -112 -57 -62 -150 -187 -150 -200 0 -3 16 -5
36 -5 23 0 51 10 79 30 24 17 46 30 50 30 5 0 62 34 131 77 10 7 33 20 49 29
17 9 42 26 57 38 14 12 63 44 108 71 90 56 184 115 400 255 376 243 366 236
449 288 24 15 87 55 140 89 85 56 140 89 257 158 19 11 77 46 130 78 53 32 98
56 100 54 5 -5 -219 -242 -261 -277 -16 -14 -59 -54 -95 -90 -36 -36 -130
-127 -210 -204 -269 -257 -602 -581 -679 -659 l-75 -77 3 -159 3 -158 -32 -36
c-38 -44 -33 -58 42 -114 l53 -38 100 0 c69 0 114 5 145 17 25 9 70 23 101 32
31 9 69 22 85 31 15 8 30 12 32 10 7 -7 -62 -139 -94 -180 -87 -111 -264 -390
-264 -418 0 -10 -7 -32 -16 -48 -8 -17 -13 -33 -11 -35 2 -3 33 0 68 5 73 12
352 32 358 26 5 -6 -42 -58 -277 -309 -89 -94 -184 -216 -216 -276 -41 -78
-69 -167 -55 -176 33 -20 381 67 599 151 117 45 374 172 455 225 33 22 74 47
90 56 29 17 98 68 202 151 117 94 343 337 359 385 4 14 2 24 -5 26 -6 2 -37
25 -69 52 -59 49 -153 111 -185 123 -27 10 -16 29 30 54 99 55 350 308 411
413 14 25 37 61 52 80 14 19 31 46 37 60 46 103 58 132 74 182 32 100 42 179
42 333 0 158 -14 258 -59 436 -34 138 -107 342 -155 434 -104 201 -151 289
-167 312 -11 16 -47 70 -81 121 -143 215 -384 493 -597 688 -228 209 -577 467
-836 617 -49 29 -114 67 -146 86 -132 78 -476 251 -499 251 -5 0 -18 7 -29 16
-19 15 -19 15 1 10 11 -3 85 -17 165 -31z"/>
<path  fill="white" d="M2585 3611 c-11 -10 -234 -101 -300 -121 -22 -7 -44 -16 -50 -20 -5
-3 -32 -15 -60 -24 -27 -10 -63 -26 -80 -35 -16 -10 -64 -30 -105 -46 -41 -15
-84 -34 -95 -41 -11 -7 -54 -25 -95 -40 -41 -15 -79 -31 -85 -36 -12 -11 38
-106 110 -206 15 -21 42 -22 30 -1 -4 5 -3 9 2 10 27 2 52 12 150 59 59 29
132 64 162 77 115 52 291 181 341 252 31 44 110 170 110 177 0 8 -26 4 -35 -5z"/>
</g>
</svg>
